<svg xmlns="http://www.w3.org/2000/svg" xmlns:xlink="http://www.w3.org/1999/xlink" style="enable-background:new 0 0 512 512" id="Layer_1" width="512" height="512" x="0" y="0" version="1.1" viewBox="0 0 512 512" xml:space="preserve"><g><g><path style="fill-rule:evenodd;clip-rule:evenodd;fill:#cbe558" d="M232.354,231.693c28.308,0,51.259-29.212,51.259-65.259 c0-35.963-22.867-65.118-51.118-65.232h-0.142h-0.143c-28.25,0.114-51.118,29.27-51.118,65.232 C181.094,202.481,204.045,231.693,232.354,231.693L232.354,231.693z"/></g><g><path style="fill-rule:evenodd;clip-rule:evenodd;fill:#e2f1a1" d="M232.354,231.693c-28.309,0-51.26-29.212-51.26-65.259 c0-35.963,22.868-65.118,51.118-65.232H93.648c0.142,1.306,0.227,2.61,0.227,3.941c0,18.181-14.735,32.929-32.898,32.929 c-1.842,0-3.684-0.171-5.44-0.454v55.249c1.757-0.283,3.599-0.453,5.44-0.453c18.163,0,32.898,14.746,32.898,32.928 c0,2.183-0.198,4.311-0.595,6.352H232.354z"/></g><g><path style="fill-rule:evenodd;clip-rule:evenodd;fill:#e2f1a1" d="M400.273,192.073v-54.455 c-0.595,0.027-1.19,0.057-1.814,0.057c-18.162,0-32.869-14.748-32.869-32.928c0-1.19,0.057-2.382,0.169-3.545H232.496 c28.251,0.114,51.118,29.27,51.118,65.232c0,36.047-22.952,65.259-51.259,65.259H366.27c-0.453-2.183-0.68-4.424-0.68-6.749 c0-18.181,14.707-32.927,32.869-32.927C399.083,192.018,399.678,192.045,400.273,192.073L400.273,192.073z"/></g><g><path style="fill-rule:evenodd;clip-rule:evenodd;fill:#cbe558" d="M447.396,278.69c4.42-3.688,7.226-9.219,7.226-15.371V69.579 c0-11.005-8.983-19.995-19.977-19.995H30.062c-10.995,0-19.977,8.99-19.977,19.995v193.739c0,11.005,8.982,19.993,19.977,19.993 h324.731c14.679-9.046,31.992-14.265,50.523-14.265C420.392,269.047,434.673,272.507,447.396,278.69L447.396,278.69z M366.27,231.693H232.354H93.28c0.397-2.041,0.595-4.169,0.595-6.352c0-18.182-14.735-32.928-32.898-32.928 c-1.842,0-3.684,0.17-5.44,0.453v-55.249c1.757,0.283,3.599,0.454,5.44,0.454c18.163,0,32.898-14.748,32.898-32.929 c0-1.331-0.085-2.636-0.227-3.941h138.563l0,0c0.058,0,0.085,0,0.143,0c0.056,0,0.112,0,0.142,0c0,0,0,0,0.028,0h133.236 c-0.113,1.163-0.169,2.354-0.169,3.545c0,18.18,14.707,32.928,32.869,32.928c0.624,0,1.219-0.029,1.814-0.057v54.455 c-0.595-0.028-1.19-0.056-1.814-0.056c-18.162,0-32.869,14.746-32.869,32.927C365.59,227.27,365.816,229.511,366.27,231.693 L366.27,231.693z"/></g><g><path style="fill-rule:evenodd;clip-rule:evenodd;fill:#78d0a9" d="M317.391,325.628c7.991-17.556,21.11-32.275,37.403-42.316 H30.062c-10.995,0-19.977-8.988-19.977-19.993v7.515v31.908v10.408c0,6.863,5.611,12.478,12.468,12.478H317.391z"/></g><g><path style="fill-rule:evenodd;clip-rule:evenodd;fill:#78d0a9" d="M308.691,365.731c0-14.295,3.117-27.88,8.699-40.104H22.553 c-6.857,0-12.468-5.615-12.468-12.478v42.316c0,6.861,5.611,12.477,12.468,12.477H308.72 C308.72,367.206,308.691,366.469,308.691,365.731L308.691,365.731z"/></g><g><path style="fill-rule:evenodd;clip-rule:evenodd;fill:#ffcb7c" d="M501.915,365.731c0-35.34-18.985-66.281-47.293-83.128 c-2.352-1.419-4.76-2.723-7.226-3.914c-12.724-6.183-27.005-9.643-42.08-9.643c-18.531,0-35.844,5.219-50.523,14.265 c-16.292,10.041-29.412,24.761-37.403,42.316c-5.582,12.224-8.699,25.809-8.699,40.104c0,0.737,0.028,1.475,0.028,2.211 c1.162,52.387,43.978,94.474,96.597,94.474C458.645,462.416,501.915,419.137,501.915,365.731L501.915,365.731z"/></g><g><path style="fill-rule:evenodd;clip-rule:evenodd;fill:#ffcb7c" d="M501.915,365.731c0-35.34-18.985-66.281-47.293-83.128 c-2.352-1.419-4.76-2.723-7.226-3.914c-12.724-6.183-27.005-9.643-42.08-9.643c-18.531,0-35.844,5.219-50.523,14.265 c-16.292,10.041-29.412,24.761-37.403,42.316c-5.582,12.224-8.699,25.809-8.699,40.104c0,0.737,0.028,1.475,0.028,2.211 c1.162,52.387,43.978,94.474,96.597,94.474C458.645,462.416,501.915,419.137,501.915,365.731L501.915,365.731z"/></g><g><path d="M48.998,200.547c2.251,1.914,5.226,2.747,8.148,2.275c1.332-0.216,2.621-0.325,3.831-0.325 c12.58,0,22.813,10.248,22.813,22.845c0,1.541-0.138,3.03-0.409,4.426c-0.576,2.955,0.201,6.015,2.117,8.339 c1.915,2.324,4.77,3.671,7.782,3.671h272.99c0.006-0.001,0.013-0.001,0.02,0c5.569,0,10.085-4.515,10.085-10.084 c0-0.895-0.117-1.763-0.336-2.59c-0.245-1.345-0.364-2.711-0.364-4.159c0-12.596,10.221-22.844,22.784-22.844 c0.459,0,0.897,0.023,1.334,0.045c2.744,0.118,5.442-0.872,7.439-2.774c1.997-1.902,3.126-4.54,3.126-7.298v-54.455 c0-2.755-1.127-5.389-3.12-7.292c-1.992-1.903-4.676-2.918-7.429-2.781l-0.105,0.006c-0.408,0.018-0.817,0.04-1.245,0.04 c-12.564,0-22.784-10.247-22.784-22.844c0-0.872,0.041-1.737,0.122-2.569c0.276-2.831-0.657-5.646-2.569-7.753 c-1.911-2.106-4.623-3.308-7.468-3.308H93.648c-2.865,0-5.594,1.218-7.507,3.351c-1.913,2.132-2.829,4.977-2.519,7.824 c0.113,1.036,0.167,1.97,0.167,2.852c0,12.598-10.234,22.845-22.813,22.845c-1.205,0-2.496-0.109-3.836-0.326 c-2.913-0.466-5.893,0.363-8.144,2.28c-2.25,1.916-3.545,4.722-3.545,7.676v55.249C45.451,195.823,46.748,198.629,48.998,200.547z M204.071,206.311c-8.313-10.584-12.892-24.746-12.892-39.876c0-15.128,4.578-29.285,12.891-39.861 c7.748-9.858,17.793-15.288,28.285-15.288c10.491,0,20.535,5.43,28.284,15.288c8.313,10.576,12.891,24.733,12.891,39.861 c0,15.13-4.579,29.292-12.892,39.876c-7.75,9.865-17.794,15.299-28.282,15.299C221.865,221.609,211.82,216.176,204.071,206.311z M390.188,146.96v35.772c-18.68,3.665-33.064,19.491-34.555,38.877h-81.566c12.065-13.768,19.631-33.402,19.631-55.175 c0-21.763-7.564-41.388-19.625-55.149H356C358.739,129.193,372.548,143.499,390.188,146.96z M65.621,147.907 c19.498-2.106,35.132-17.314,37.902-36.622h87.111c-12.06,13.762-19.625,33.387-19.625,55.149 c0,21.772,7.568,41.407,19.631,55.175h-86.841c-1.765-20.439-17.877-36.838-38.178-39.031V147.907z"/><path d="M362.36,346.404h59.366c-3.104,3.608-3.306,9.022-0.22,12.871c1.992,2.485,4.92,3.777,7.875,3.777 c2.213,0,4.44-0.726,6.301-2.217l20.77-16.646c4.346-3.483,5.045-9.83,1.561-14.176c-0.338-0.422-0.71-0.799-1.098-1.152 c-0.063-0.06-0.13-0.121-0.2-0.184c-0.07-0.061-0.139-0.121-0.21-0.18c-0.019-0.016-0.033-0.029-0.052-0.045l-20.77-16.65 c-4.345-3.481-10.692-2.785-14.176,1.562c-3.086,3.849-2.884,9.265,0.221,12.873H362.36c-5.57,0-10.085,4.515-10.085,10.084 C352.275,341.891,356.79,346.404,362.36,346.404z"/><path d="M451.42,384.859h-59.367c3.105-3.607,3.306-9.023,0.221-12.871c-3.484-4.345-9.83-5.044-14.176-1.561l-20.771,16.648 c-0.012,0.01-0.02,0.02-0.032,0.029c-0.551,0.447-1.067,0.954-1.529,1.531c-3.483,4.345-2.785,10.691,1.561,14.175l20.771,16.648 c1.86,1.492,4.088,2.218,6.301,2.218c2.955,0,5.883-1.293,7.875-3.778c3.085-3.849,2.884-9.265-0.221-12.872h59.367 c5.57,0,10.085-4.515,10.085-10.084C461.505,389.375,456.99,384.859,451.42,384.859z"/><path d="M232.552,273.228h-0.198c-5.57,0-10.085,4.515-10.085,10.083c0,5.569,4.515,10.085,10.085,10.085h0.198 c5.57,0,10.084-4.516,10.084-10.085C242.636,277.743,238.122,273.228,232.552,273.228z"/><path d="M462.152,275.417c1.661-3.768,2.554-7.874,2.554-12.099V69.579c0-16.586-13.485-30.079-30.061-30.079H30.062 C13.485,39.5,0,52.993,0,69.579v193.739v49.831v42.316c0,12.44,10.117,22.561,22.553,22.561h276.765 c6.114,53.103,51.314,94.474,105.998,94.474C464.142,472.5,512,424.603,512,365.731C512,327.754,492.081,294.35,462.152,275.417z M20.17,69.579c0-5.465,4.438-9.911,9.892-9.911h404.583c5.455,0,9.892,4.446,9.892,9.911v193.739c0,1.01-0.165,1.997-0.462,2.94 c-12.02-4.706-25.092-7.295-38.759-7.295c-19.376,0-37.561,5.194-53.24,14.265h-79.797c-5.57,0-10.085,4.515-10.085,10.083 c0,5.569,4.515,10.085,10.085,10.085h54.625c-6.14,6.657-11.445,14.096-15.75,22.147H22.553c-1.292,0-2.383-1.098-2.383-2.395 v-21.435c3.1,1.085,6.427,1.682,9.892,1.682h160.071c5.569,0,10.085-4.516,10.085-10.085c0-5.568-4.515-10.083-10.085-10.083 H30.062c-5.455,0-9.892-4.446-9.892-9.91V69.579z M20.17,355.466v-19.881c0.783,0.083,1.578,0.127,2.383,0.127h280.354 c-2.084,7.106-3.452,14.516-4.01,22.147H22.553C21.261,357.859,20.17,356.763,20.17,355.466z M405.316,452.332 c-46.978,0-85.333-37.653-86.512-84.386c0,0,0-0.002,0-0.004c0-0.002,0-0.004,0-0.006c-0.018-0.733-0.028-1.468-0.028-2.205 c0-47.751,38.821-86.601,86.54-86.601c47.704,0,86.514,38.85,86.514,86.601C491.83,413.482,453.02,452.332,405.316,452.332z"/></g></g></svg>