<svg width="12" height="15" viewBox="0 0 12 15" fill="none" xmlns="http://www.w3.org/2000/svg">
<path d="M3.28596 1.36362C3.28596 0.916472 3.63493 0.589675 4.08208 0.589675H7.3548C7.80181 0.589675 8.15077 0.916472 8.15077 1.36362V2.21128H8.74045V1.36362C8.74045 0.591402 8.12702 0 7.3548 0H4.08208C3.30986 0 2.69629 0.591402 2.69629 1.36362V2.21128H3.28596V1.36362Z" fill="#EB5757"/>
<path d="M2.23324 15H9.20611C9.87842 15 10.4001 14.4086 10.4001 13.6733V4.57016H1.03906V13.6733C1.03906 14.4086 1.56079 15 2.23324 15V15ZM7.59919 5.97798C7.59919 5.81516 7.73121 5.68314 7.89403 5.68314C8.05685 5.68314 8.18887 5.81516 8.18887 5.97798V12.9435C8.18887 13.1063 8.05685 13.2383 7.89403 13.2383C7.73121 13.2383 7.59919 13.1063 7.59919 12.9435V5.97798ZM5.42477 5.97798C5.42477 5.81516 5.55678 5.68314 5.7196 5.68314C5.88243 5.68314 6.01444 5.81516 6.01444 5.97798V12.9435C6.01444 13.1063 5.88243 13.2383 5.7196 13.2383C5.55678 13.2383 5.42477 13.1063 5.42477 12.9435V5.97798ZM3.25034 5.97798C3.25034 5.81516 3.38236 5.68314 3.54518 5.68314C3.708 5.68314 3.84002 5.81516 3.84002 5.97798V12.9435C3.84002 13.1063 3.708 13.2383 3.54518 13.2383C3.38236 13.2383 3.25034 13.1063 3.25034 12.9435V5.97798Z" fill="#EB5757"/>
<path d="M0.737094 3.98011H10.7025C11.1097 3.98011 11.4396 3.65014 11.4396 3.24301C11.4396 2.83588 11.1097 2.50592 10.7025 2.50592H0.737094C0.329965 2.50592 0 2.83588 0 3.24301C0 3.65014 0.329965 3.98011 0.737094 3.98011Z" fill="#EB5757"/>
</svg>
