<svg xmlns="http://www.w3.org/2000/svg" width="180" height="180" fill="none" viewBox="0 0 180 180"><rect width="180" height="180" fill="#00EBC7"/><path fill="#73B2AA" fill-rule="evenodd" d="M81.2792 88H68.4142L87.7118 107.298L81.2792 88ZM83.3874 88H96.6126L90 107.838L83.3874 88ZM98.7208 88H111.586L92.2882 107.298L98.7208 88ZM65.7929 85.7929L73.5858 78H75.2071H105.793H106.414L106.914 78.5L114.207 85.7929L115.414 87L90.7071 111.707L90 112.414L64.5858 87L65.7929 85.7929ZM68.4142 86L74 80.4142L79.5858 86H68.4142ZM84.4142 86L90 80.4142L95.5858 86H84.4142ZM100.414 86L106 80.4142L111.586 86H100.414ZM92.4142 80H103.586L98 85.5858L92.4142 80ZM82 85.5858L87.5858 80H76.4142L82 85.5858ZM17.4142 0L0.707107 16.7071L0 17.4142V0H17.4142ZM4.27924 0L0 12.8377V0H4.27924ZM14.5858 0L2.28825 12.2975L6.38743 0H14.5858ZM180 17.4142L162.586 0H180V17.4142ZM165.414 0L177.712 12.2975L173.613 0H165.414ZM180 12.8377L175.721 0H180V12.8377ZM0 163H15.7929H16.4142L16.9142 163.5L24.2071 170.793L25.4142 172L17.4142 180H0V163H0ZM0 173H6.61257L4.27924 180H0V173ZM14.5858 180L21.5858 173H8.72076L6.38743 180H14.5858ZM0 165.414L5.58579 171H0V165.414H0ZM10.4142 171L16 165.414L21.5858 171H10.4142ZM2.41421 165H13.5858L8 170.586L2.41421 165ZM180 163H165.207H163.586L155.793 170.793L154.586 172L162.586 180H180V163ZM165.414 180L158.414 173H171.279L173.613 180H165.414ZM180 173H173.387L175.721 180H180V173ZM158.414 171L164 165.414L169.586 171H158.414ZM180 165.414L174.414 171H180V165.414ZM172 170.586L177.586 165H166.414L172 170.586ZM152.933 25.6533L154.347 27.0675L120.406 61.0086L118.991 59.5944L152.933 25.6533ZM154.347 152.933L152.933 154.347L118.991 120.406L120.406 118.991L154.347 152.933ZM27.0675 154.347L25.6533 152.933L59.5944 118.991L61.0086 120.406L27.0675 154.347ZM25.6533 27.0675L27.0675 25.6533L61.0086 59.5944L59.5944 61.0086L25.6533 27.0675ZM0 85C2.20914 85 4 86.7909 4 89C4 91.2091 2.20914 93 0 93V85ZM180 85C177.791 85 176 86.7909 176 89C176 91.2091 177.791 93 180 93V85ZM94 0C94 2.20914 92.2091 4 90 4C87.7909 4 86 2.20914 86 0H94ZM94 180C94 177.791 92.2091 176 90 176C87.7909 176 86 177.791 86 180H94Z" clip-rule="evenodd"/></svg>