<svg xmlns="http://www.w3.org/2000/svg" width="100" height="90" fill="none" viewBox="0 0 100 90"><path fill="#00214D" d="M93.5898 12.9486H6.41035C2.86914 12.9486 0 10.0795 0 6.53848C0 2.99744 2.86914 0.128113 6.41035 0.128113H93.5898C97.1309 0.128113 100 2.99725 100 6.53848C100 10.0797 97.1309 12.9486 93.5898 12.9486Z"/><path fill="#00214D" d="M57.6924 51.4104H6.41035C2.86914 51.4104 0 48.541 0 45C0 41.459 2.86914 38.5897 6.41035 38.5897H57.6924C61.2334 38.5897 64.1027 41.4588 64.1027 45C64.1027 48.5412 61.2334 51.4104 57.6924 51.4104Z"/><path fill="#00214D" d="M93.5898 89.8719H6.41035C2.86914 89.8719 0 87.0025 0 83.4615C0 79.9205 2.86914 77.0512 6.41035 77.0512H93.5898C97.1309 77.0512 100 79.9203 100 83.4615C100 87.0025 97.1309 89.8719 93.5898 89.8719Z"/></svg>