<svg width="100" height="100" viewBox="0 0 100 100" fill="none" xmlns="http://www.w3.org/2000/svg">
<path d="M93.5898 17.4486H6.41035C3.14527 17.4486 0.5 14.8033 0.5 11.5385C0.5 8.27357 3.14529 5.62811 6.41035 5.62811H93.5898C96.8547 5.62811 99.5 8.27338 99.5 11.5385C99.5 14.8035 96.8548 17.4486 93.5898 17.4486Z" fill="#19D895" stroke="#67BFA0"/>
<path d="M57.6924 55.9104H6.41035C3.1453 55.9104 0.5 53.2648 0.5 50C0.5 46.7351 3.14529 44.0897 6.41035 44.0897H57.6924C60.9573 44.0897 63.6027 46.7349 63.6027 50C63.6027 53.265 60.9573 55.9104 57.6924 55.9104Z" fill="#19D895" stroke="#67BFA0"/>
<path d="M93.5898 94.3719H6.41035C3.1453 94.3719 0.5 91.7264 0.5 88.4615C0.5 85.1966 3.14529 82.5512 6.41035 82.5512H93.5898C96.8548 82.5512 99.5 85.1964 99.5 88.4615C99.5 91.7264 96.8547 94.3719 93.5898 94.3719Z" fill="#19D895" stroke="#67BFA0"/>
</svg>
