<svg xmlns="http://www.w3.org/2000/svg" width="21" height="21" fill="none" viewBox="0 0 21 21"><rect width="21" height="21" fill="#27AE60" rx="10.5"/><path fill="#FAFAFA" d="M15.5233 11.0648H11.6597V15.0042C11.6597 15.5159 11.2534 15.931 10.7507 15.931C10.248 15.931 9.84164 15.5159 9.84164 15.0042V11.0648H5.97799C5.47529 11.0648 5.06897 10.6496 5.06897 10.1379C5.06897 9.62621 5.47529 9.21107 5.97799 9.21107H9.84164V5.27167C9.84164 4.75996 10.248 4.34482 10.7507 4.34482C11.2534 4.34482 11.6597 4.75996 11.6597 5.27167V9.21107H15.5233C16.026 9.21107 16.4324 9.62621 16.4324 10.1379C16.4324 10.6496 16.026 11.0648 15.5233 11.0648V11.0648Z"/></svg>