<svg xmlns="http://www.w3.org/2000/svg" width="105" height="107" fill="none" viewBox="0 0 105 107"><circle cx="55" cy="57" r="50" fill="#46DEB1"/><circle cx="50" cy="50" r="49.5" fill="#fff" stroke="#F0F0F0"/><path fill="#134280" d="M71.4391 49.2425C71.174 48.8035 70.6983 48.5353 70.1856 48.5353C65.8597 48.5353 61.8993 50.7589 59.6441 54.3947H42.2711C40.315 54.3947 38.4755 55.1564 37.0923 56.54L28.4287 65.2032C27.8573 65.775 27.8569 66.7028 28.4287 67.275C31.9863 70.8322 35.7198 74.5382 35.7571 74.5748C36.329 75.1428 37.2517 75.1413 37.8224 74.5736L43.3785 69.0431H55.6501C59.4773 69.0431 62.9579 66.9378 64.7321 63.5488C64.7767 63.4637 69.2136 54.9966 71.4818 50.6818C71.7206 50.2275 71.7046 49.682 71.4391 49.2425V49.2425ZM62.137 62.1896C60.8697 64.61 58.3841 66.1134 55.6501 66.1134H42.7739C42.3863 66.1134 42.0148 66.2668 41.7405 66.5399L36.7879 71.4696C35.621 70.31 33.6129 68.3122 31.5366 66.2385L39.1637 58.6114C39.9938 57.7813 41.0974 57.3243 42.2711 57.3243H58.0716L56.9474 59.4693C56.6938 59.9534 56.1967 60.254 55.6501 60.254H45.7036C44.8945 60.254 44.2388 60.9098 44.2388 61.7189C44.2388 62.528 44.8945 63.1837 45.7036 63.1837H55.6501C57.2896 63.1837 58.7812 62.2815 59.5426 60.8293C59.5437 60.8266 61.8036 56.5149 61.8036 56.5149C63.0304 54.194 65.1239 52.5285 67.5695 51.83C65.2322 56.2825 62.1743 62.1187 62.137 62.1896V62.1896Z"/><path fill="#134280" d="M41.3091 51.4649H58.8872C59.6959 51.4649 60.3521 50.8091 60.3521 50V32.3242C60.3521 31.5151 59.6959 30.8594 58.8872 30.8594H54.4927V29.3945C54.4927 26.9714 52.5213 25 50.0982 25C47.6751 25 45.7036 26.9714 45.7036 29.3945V30.8594H41.3091C40.5 30.8594 39.8442 31.5151 39.8442 32.3242V50C39.8442 50.8091 40.5 51.4649 41.3091 51.4649V51.4649ZM48.6333 29.3945C48.6333 28.587 49.2902 27.9297 50.0982 27.9297C50.9057 27.9297 51.563 28.587 51.563 29.3945V30.8594H48.6333V29.3945ZM42.7739 33.7891H45.7036V35.2539C45.7036 36.063 46.3594 36.7188 47.1685 36.7188C47.9772 36.7188 48.6333 36.063 48.6333 35.2539V33.7891H51.563V35.2539C51.563 36.063 52.2187 36.7188 53.0278 36.7188C53.8366 36.7188 54.4927 36.063 54.4927 35.2539V33.7891H57.4224V48.5352H42.7739V33.7891Z"/></svg>