<svg xmlns="http://www.w3.org/2000/svg" width="105" height="107" fill="none" viewBox="0 0 105 107"><circle cx="55" cy="57" r="50" fill="#46DEB1"/><circle cx="50" cy="50" r="49.5" fill="#fff" stroke="#F0F0F0"/><path fill="#134280" d="M70.5312 33H34.5938C32.4398 33 30.6875 34.7523 30.6875 36.9062V54.875H29.9062C27.7523 54.875 26 56.6273 26 58.7812V72.8438C26 74.9977 27.7523 76.75 29.9062 76.75H39.7734L44.5422 80.8367C44.9937 81.225 45.5695 81.4375 46.1648 81.4375C47.5383 81.4375 48.6562 80.3195 48.6562 78.9461V76.75H50.2188C52.3727 76.75 54.125 74.9977 54.125 72.8438V59.5625H58.5234L63.2922 63.6492C63.7438 64.0375 64.3195 64.25 64.9148 64.25C66.2883 64.25 67.4062 63.132 67.4062 61.7586V59.5625H70.5312C72.6852 59.5625 74.4375 57.8102 74.4375 55.6562V36.9062C74.4375 34.7523 72.6852 33 70.5312 33ZM52.5625 72.8438C52.5625 74.1359 51.5109 75.1875 50.2188 75.1875H47.0938V78.9461C47.0938 79.4586 46.6773 79.875 46.1648 79.875C45.943 79.875 45.7273 79.7953 45.5594 79.6516L40.3516 75.1875H29.9062C28.6141 75.1875 27.5625 74.1359 27.5625 72.8438V58.7812C27.5625 57.4891 28.6141 56.4375 29.9062 56.4375H49.4375H50.2188C51.5109 56.4375 52.5625 57.4891 52.5625 58.7812V72.8438ZM38.5 40.8125C38.5 39.0891 39.9016 37.6875 41.625 37.6875C43.3484 37.6875 44.75 39.0891 44.75 40.8125C44.75 42.5359 43.3484 43.9375 41.625 43.9375C39.9016 43.9375 38.5 42.5359 38.5 40.8125ZM41.625 45.5C42.1523 45.5 42.6688 45.5719 43.1672 45.6984C43.0688 46.4656 42.4188 47.0625 41.625 47.0625C40.832 47.0625 40.1828 46.4664 40.0828 45.7008C40.5773 45.5742 41.0922 45.5 41.625 45.5ZM38.6102 46.2789C38.9586 47.6242 40.1719 48.625 41.625 48.625C43.0766 48.625 44.2891 47.6258 44.6391 46.2828C45.1687 46.575 45.6578 46.9414 46.0891 47.382C45.2438 48.6297 44.75 50.1336 44.75 51.75V54.875H35.375V51.75C35.375 49.3969 36.6836 47.3445 38.6102 46.2789V46.2789ZM49.4375 40.8125C49.4375 39.0891 50.8391 37.6875 52.5625 37.6875C54.2859 37.6875 55.6875 39.0891 55.6875 40.8125C55.6875 42.5359 54.2859 43.9375 52.5625 43.9375C50.8391 43.9375 49.4375 42.5359 49.4375 40.8125ZM53.3109 51.4594L52.5625 52.2078L51.8141 51.4594L52.4094 45.5078C52.4609 45.5063 52.5109 45.5 52.5625 45.5C52.6141 45.5 52.6641 45.5063 52.7156 45.5078L53.3109 51.4594ZM52.5625 54.4172L54.9391 52.0406L54.3102 45.7531C56.9078 46.5125 58.8125 48.9109 58.8125 51.75V54.875H50.2188H49.4375H46.3125V51.75C46.3125 48.9109 48.2172 46.5125 50.8148 45.7539L50.1859 52.0414L52.5625 54.4172ZM60.375 40.8125C60.375 39.0891 61.7766 37.6875 63.5 37.6875C65.2234 37.6875 66.625 39.0891 66.625 40.8125C66.625 42.5359 65.2234 43.9375 63.5 43.9375C61.7766 43.9375 60.375 42.5359 60.375 40.8125ZM63.5 45.5C64.0328 45.5 64.5477 45.5742 65.0422 45.7008C64.9422 46.4664 64.293 47.0625 63.5 47.0625C62.7062 47.0625 62.0563 46.4656 61.9578 45.6984C62.4563 45.5719 62.9727 45.5 63.5 45.5ZM60.4867 46.2828C60.8359 47.6258 62.0484 48.625 63.5 48.625C64.9531 48.625 66.1664 47.6242 66.5148 46.2789C68.4414 47.3445 69.75 49.3969 69.75 51.75V54.875H60.375V51.75C60.375 50.1336 59.8812 48.6297 59.0367 47.382C59.4672 46.9414 59.957 46.575 60.4867 46.2828ZM72.875 55.6562C72.875 56.9484 71.8234 58 70.5312 58H65.8438V61.7586C65.8438 62.2711 65.4273 62.6875 64.9148 62.6875C64.693 62.6875 64.4773 62.6078 64.3094 62.4641L59.1016 58H54.0461C53.9273 57.4195 53.6695 56.8937 53.3242 56.4375H71.3125V51.75C71.3125 48.4633 69.2687 45.6492 66.3875 44.4977C67.4812 43.6383 68.1875 42.3078 68.1875 40.8125C68.1875 38.2273 66.0852 36.125 63.5 36.125C60.9148 36.125 58.8125 38.2273 58.8125 40.8125C58.8125 42.3086 59.5195 43.6398 60.6141 44.4992C59.6562 44.8797 58.7734 45.4406 58.0258 46.1766C57.293 45.4578 56.4187 44.8852 55.45 44.4984C56.5437 43.6383 57.25 42.3078 57.25 40.8125C57.25 38.2273 55.1477 36.125 52.5625 36.125C49.9773 36.125 47.875 38.2273 47.875 40.8125C47.875 42.3078 48.5813 43.6383 49.675 44.4977C48.7063 44.8852 47.832 45.4578 47.0992 46.1758C46.3516 45.4398 45.4695 44.8797 44.5109 44.4984C45.6055 43.6398 46.3125 42.3086 46.3125 40.8125C46.3125 38.2273 44.2102 36.125 41.625 36.125C39.0398 36.125 36.9375 38.2273 36.9375 40.8125C36.9375 42.3078 37.6438 43.6383 38.7375 44.4977C35.8563 45.6492 33.8125 48.4633 33.8125 51.75V54.875H32.25V36.9062C32.25 35.6141 33.3016 34.5625 34.5938 34.5625H70.5312C71.8234 34.5625 72.875 35.6141 72.875 36.9062V55.6562ZM49.4375 64.25C49.4375 62.3641 48.093 60.7859 46.3125 60.4227V58H42.1461L41.9375 58.1563C40.0562 59.5672 37.7258 60.3438 35.375 60.3438H33.0312C31.7391 60.3438 30.6875 61.3953 30.6875 62.6875V65.8125C30.6875 67.1047 31.7391 68.1562 33.0312 68.1562H33.8125V71.2812C33.8125 72.5734 34.8641 73.625 36.1562 73.625C37.4484 73.625 38.5 72.5734 38.5 71.2812V68.625C39.7336 68.9937 40.9047 69.5695 41.9375 70.3437L42.1461 70.5H46.3125V68.0773C48.093 67.7141 49.4375 66.1359 49.4375 64.25V64.25ZM32.25 65.8125V62.6875C32.25 62.2563 32.6 61.9062 33.0312 61.9062H35.375C37.5633 61.9062 39.7328 61.3109 41.625 60.2211V68.2789C39.7328 67.1891 37.5633 66.5938 35.375 66.5938H33.0312C32.6 66.5938 32.25 66.2437 32.25 65.8125ZM36.9375 71.2812C36.9375 71.7125 36.5875 72.0625 36.1562 72.0625C35.725 72.0625 35.375 71.7125 35.375 71.2812V68.1562C35.8984 68.1562 36.4203 68.2008 36.9375 68.2766V71.2812ZM44.75 68.9375H43.1875V59.5625H44.75V68.9375ZM46.3125 66.45V62.0508C47.2195 62.3742 47.875 63.2336 47.875 64.2508C47.875 65.268 47.2195 66.1266 46.3125 66.45ZM33.8125 43.9375H35.375V45.5H33.8125V43.9375ZM35.375 36.125H36.9375V37.6875H35.375V42.375H33.8125V37.6875C33.8125 36.8258 34.5133 36.125 35.375 36.125ZM69.75 42.375H71.3125V43.9375H69.75V42.375ZM69.75 39.25H71.3125V40.8125H69.75V39.25ZM69.75 36.125H71.3125V37.6875H69.75V36.125ZM49.4375 67.375H51V72.0625C51 72.9242 50.2992 73.625 49.4375 73.625H47.875V72.0625H49.4375V67.375Z"/></svg>