<svg xmlns="http://www.w3.org/2000/svg" width="105" height="107" fill="none" viewBox="0 0 105 107"><circle cx="55" cy="57" r="50" fill="#46DEB1"/><circle cx="50" cy="50" r="49.5" fill="#fff" stroke="#F0F0F0"/><path fill="#134280" d="M74.7917 32.2727C74.5834 32.0454 74.375 31.8181 73.9584 31.8181H34.375L33.3333 25.9091C33.3333 25.4545 32.7083 25 32.2916 25H26.0416C25.4167 24.9999 25 25.4545 25 26.1363C25 26.8181 25.4167 27.2727 26.0417 27.2727H31.4584L36.4584 55.0001C37.0834 58.6364 40.2084 61.3637 43.5417 61.3637H67.5C68.125 61.3637 68.5417 60.9091 68.5417 60.2273C68.5417 59.5455 68.125 59.0909 67.5 59.0909H43.75C42.0833 59.0909 40.4167 58.1818 39.5833 56.5908L70 52.0454C70.4167 52.0454 70.8333 51.5909 70.8333 51.1364L75 32.9545C75 32.9545 75 32.4999 74.7917 32.2727ZM68.9583 50L38.5416 54.3181L34.7916 33.8636H72.5L68.9583 50Z"/><path fill="#134280" d="M42.7083 63.6364C39.7917 63.6364 37.5 66.1364 37.5 69.3181C37.5 72.5 39.7917 74.9999 42.7083 74.9999C45.625 74.9999 47.9166 72.4999 47.9166 69.3181C47.9167 66.1364 45.625 63.6364 42.7083 63.6364ZM42.7083 72.7272C41.0416 72.7272 39.5833 71.1363 39.5833 69.3181C39.5833 67.5 41.0416 65.9091 42.7083 65.9091C44.375 65.9091 45.8333 67.5 45.8333 69.3181C45.8333 71.1363 44.375 72.7272 42.7083 72.7272Z"/><path fill="#134280" d="M63.5418 63.6364C60.6251 63.6364 58.3335 66.1364 58.3335 69.3181C58.3335 72.5 60.6252 74.9999 63.5418 74.9999C66.4585 74.9999 68.7501 72.4999 68.7501 69.3181C68.7501 66.1364 66.4584 63.6364 63.5418 63.6364ZM63.5418 72.7272C61.8751 72.7272 60.4168 71.1363 60.4168 69.3181C60.4168 67.5 61.8751 65.9091 63.5418 65.9091C65.2085 65.9091 66.6668 67.5 66.6668 69.3181C66.6668 71.1363 65.2084 72.7272 63.5418 72.7272Z"/></svg>