<svg xmlns="http://www.w3.org/2000/svg" width="105" height="107" fill="none" viewBox="0 0 105 107"><circle cx="55" cy="57" r="50" fill="#46DEB1"/><circle cx="50" cy="50" r="49.5" fill="#fff" stroke="#F0F0F0"/><path fill="#134280" d="M74.8732 67.8439C74.6534 66.788 73.6193 66.1102 72.563 66.33C71.5069 66.5498 70.8291 67.5842 71.049 68.6401C71.1756 69.2484 71.0248 69.8719 70.6353 70.351C70.4097 70.6284 69.9067 71.0938 69.0729 71.0938H30.927C30.0932 71.0938 29.5902 70.6283 29.3646 70.351C28.9751 69.872 28.8243 69.2484 28.9509 68.6401C30.9779 58.9043 39.5653 51.7924 49.4822 51.5525C49.654 51.5592 49.8265 51.5625 50 51.5625C50.174 51.5625 50.3472 51.5591 50.5197 51.5524C57.5052 51.72 63.9619 55.2582 67.8719 61.0896C68.4726 61.9855 69.6858 62.2248 70.5819 61.6241C71.4778 61.0234 71.7171 59.8102 71.1164 58.9143C67.9116 54.1346 63.258 50.659 57.9519 48.9126C61.1853 46.4879 63.2812 42.6247 63.2812 38.2812C63.2812 30.958 57.3233 25 50 25C42.6766 25 36.7187 30.958 36.7187 38.2812C36.7187 42.6273 38.8172 46.4926 42.054 48.9171C39.0883 49.8935 36.3056 51.4127 33.8701 53.416C29.4041 57.0896 26.2989 62.2135 25.1267 67.8439C24.7593 69.6083 25.1995 71.4204 26.334 72.8155C27.463 74.2038 29.1372 75 30.927 75H69.0728C70.8628 75 72.5369 74.2038 73.6658 72.8155C74.8005 71.4204 75.2406 69.6083 74.8732 67.8439ZM40.625 38.2812C40.625 33.1118 44.8305 28.9062 50 28.9062C55.1694 28.9062 59.375 33.1118 59.375 38.2812C59.375 43.2915 55.4243 47.3964 50.4745 47.6443C50.3166 47.6414 50.1584 47.6399 50 47.6399C49.8423 47.6399 49.6847 47.6415 49.5273 47.6444C44.5766 47.3975 40.625 43.2922 40.625 38.2812Z"/></svg>