<svg xmlns="http://www.w3.org/2000/svg" xmlns:xlink="http://www.w3.org/1999/xlink" id="Capa_1" x="0" y="0" version="1.1" viewBox="0 0 384.119 384.119" xml:space="preserve" style="enable-background:new 0 0 384.119 384.119"><g><g><path d="M64.174,85.378c-11.774,0-21.356-9.589-21.356-21.355c0-11.835,9.517-21.355,21.42-21.355h276.713V0H64.238 C28.768,0,0.152,28.626,0.152,64.022c0,1.019,0.024,2.033,0,3.04v252.39c0,35.298,28.614,63.927,63.968,64.017l255.771,0.648 c35.375,0.09,64.076-28.463,64.076-63.816V85.378H64.174z M341.3,320.302c0,11.721-9.508,21.179-21.302,21.149l-255.771-0.648 c-11.851-0.03-21.41-9.594-21.41-21.351V124.391c6.68,2.366,13.868,3.654,21.356,3.654H341.3V320.302z"/></g></g><g><g><path d="M298.353,213.914h66.184v-42.667h-66.184c-35.369,0-64.068,28.71-64.068,64.052c0,35.353,28.751,64.052,64.069,64.052 h66.184v-42.667h-66.184c-11.771,0-21.402-9.614-21.402-21.385C276.951,223.518,286.552,213.914,298.353,213.914z"/></g></g></svg>